Coordinates
version=1
nRows=8
nColumns=40
inDegrees=yes

Units are S.I. units (second, meters, Newtons, ...)
Angles are in degrees.

endheader
time	pelvis_tilt	pelvis_list	pelvis_rotation	pelvis_tx	pelvis_ty	pelvis_tz	hip_flexion_r	hip_adduction_r	hip_rotation_r	knee_angle_r	knee_angle_r_beta	ankle_angle_r	subtalar_angle_r	mtp_angle_r	hip_flexion_l	hip_adduction_l	hip_rotation_l	knee_angle_l	knee_angle_l_beta	ankle_angle_l	subtalar_angle_l	mtp_angle_l	lumbar_extension	lumbar_bending	lumbar_rotation	arm_flex_r	arm_add_r	arm_rot_r	elbow_flex_r	pro_sup_r	wrist_flex_r	wrist_dev_r	arm_flex_l	arm_add_l	arm_rot_l	elbow_flex_l	pro_sup_l	wrist_flex_l	wrist_dev_l
     15.98000000	     -4.33387085	     -5.56798865	      1.93943915	      0.95338966	      0.92945418	      0.48003836	     13.84091029	      4.58188752	    -15.16122685	     15.99054276	     15.99054276	      9.12590054	     -0.65411229	     -3.32855131	     32.85037577	    -10.65103697	      3.58277600	     64.00764806	     64.00764806	      7.13411326	    -18.36343899	     12.14942129	    -11.20927224	      6.05665496	      3.24011634	     16.26792616	    -14.93446160	      3.17110282	     54.27414113	     45.20597673	      0.00000000	      0.00000000	      5.33669896	     -7.89022065	     -7.37519023	     45.26334220	     45.34172959	      0.00000000	      0.00000000
     15.99221429	     -4.40829451	     -5.55310159	      2.19668295	      0.95231682	      0.92966051	      0.48053755	     13.26831799	      4.68441519	    -15.08005185	     15.60847919	     15.60847919	      9.23121982	     -0.99493555	     -3.55183678	     34.00826819	    -10.57505717	      3.28062610	     61.55948449	     61.55948449	      7.69335654	    -18.59168152	     12.69043739	    -11.25079073	      5.97715739	      3.11714540	     18.12038532	    -15.20946376	      3.68483982	     57.52459896	     45.09734918	      0.00000000	      0.00000000	      4.94115304	     -7.38680671	     -8.02585824	     42.33604035	     45.47957325	      0.00000000	      0.00000000
     16.00442857	     -4.44799628	     -5.46135446	      2.44069341	      0.95130547	      0.92993006	      0.48098582	     12.66340524	      4.68266809	    -15.11557953	     15.26482712	     15.26482712	      9.47879512	     -1.02884828	     -3.53627986	     34.83636387	    -10.38952924	      2.87673163	     58.70020354	     58.70020354	      8.06250300	    -18.75861331	     13.01029383	    -11.33641682	      5.79825293	      2.66480151	     20.53784284	    -14.84860147	      3.52523607	     59.50499261	     45.04994746	      0.00000000	      0.00000000	      3.90500734	     -7.29158378	     -7.95843950	     40.79300651	     45.46649525	      0.00000000	      0.00000000
     16.01664286	     -4.51035356	     -5.45888188	      2.68976738	      0.95031582	      0.93004752	      0.48135452	     12.07641459	      4.76351787	    -15.23458024	     14.89396818	     14.89396818	      9.71293486	     -0.96534641	     -3.51568007	     35.52709887	    -10.20505237	      2.58181613	     55.62676963	     55.62676963	      8.45485277	    -18.80137881	     13.43033753	    -11.38961753	      5.76407750	      2.29063649	     22.77487046	    -14.65969110	      3.61435777	     61.99655038	     44.97697281	      0.00000000	      0.00000000	      3.20684398	     -7.06700225	     -7.96483206	     38.39162423	     45.47013579	      0.00000000	      0.00000000
     16.02885714	     -4.57432927	     -5.40363738	      2.90428286	      0.94938712	      0.93020322	      0.48163918	     11.49767802	      4.78041949	    -15.32826362	     14.53952220	     14.53952220	      9.96213364	     -0.83615839	     -3.50627302	     35.97882151	     -9.89047747	      2.31928347	     52.26344852	     52.26344852	      8.73465258	    -18.76343927	     13.83768279	    -11.44879923	      5.67659146	      2.19809522	     24.79872602	    -14.63616047	      3.70601263	     64.41055226	     44.90681455	      0.00000000	      0.00000000	      2.71085834	     -6.81044665	     -8.00652623	     36.00984099	     45.48154999	      0.00000000	      0.00000000
     16.04107143	     -4.74346101	     -5.40566968	      3.09119992	      0.94842638	      0.93009880	      0.48182080	     11.05201401	      4.81554787	    -15.62740242	     14.22027499	     14.22027499	     10.24761329	     -0.41234645	     -3.47572008	     36.41113675	     -9.57701982	      2.12010419	     48.74268732	     48.74268732	      8.78235371	    -18.60888001	     13.69254098	    -11.37872847	      5.67366913	      3.08182529	     25.87703910	    -15.76201700	      3.90358035	     68.35983907	     44.79959718	      0.00000000	      0.00000000	      3.70742274	     -6.11083055	     -8.49114500	     31.10429856	     45.61843462	      0.00000000	      0.00000000
     16.05328571	     -4.84943067	     -5.36053291	      3.24938150	      0.94756219	      0.93008786	      0.48194834	     10.52203086	      4.84075798	    -15.69331765	     13.86157187	     13.86157187	     10.47289662	     -0.29848851	     -3.47588745	     36.58933853	     -9.14997038	      2.02212775	     45.05579191	     45.05579191	      8.96460863	    -18.26392810	     13.88841150	    -11.39220873	      5.58227210	      2.92265432	     27.98923647	    -15.45550771	      3.52803788	     70.09513052	     44.77020878	      0.00000000	      0.00000000	      2.77447925	     -5.99156240	     -8.54150653	     30.04425334	     45.62305267	      0.00000000	      0.00000000
     16.06550000	     -5.01323481	     -5.33941330	      3.39908832	      0.94677848	      0.92993656	      0.48194910	     10.02734630	      4.87491467	    -15.83373137	     13.46495326	     13.46495326	     10.70894415	     -0.01736561	     -3.50915530	     36.71979344	     -8.72291548	      1.98348295	     41.30715536	     41.30715536	      9.12344296	    -17.61555540	     13.89833493	    -11.31669250	      5.52076344	      2.83460071	     30.02212670	    -15.23559876	      3.29436985	     71.91541725	     44.73171283	      0.00000000	      0.00000000	      1.90321480	     -5.88050625	     -8.55964993	     28.93075358	     45.62308206	      0.00000000	      0.00000000
